<?xml version="1.0" encoding="UTF-8" standalone="no"?>
<svg width="22px" height="22px" viewBox="0 0 22 22" version="1.1" xmlns="http://www.w3.org/2000/svg" xmlns:xlink="http://www.w3.org/1999/xlink">
    <!-- Generator: Sketch 3.6.1 (26313) - http://www.bohemiancoding.com/sketch -->
    <title>ex</title>
    <desc>Created with Sketch.</desc>
    <defs></defs>
    <g id="Page-1" stroke="none" stroke-width="1" fill="none" fill-rule="evenodd">
        <g id="Desktop-HD" transform="translate(-964.000000, -46.000000)" fill="#2F664B">
            <path d="M975,55.0727014 L966.329528,46.4022299 C965.796598,45.869299 964.932067,45.8676489 964.399858,46.3998577 C963.863938,46.935777 963.868711,47.7960096 964.40223,48.3295285 L973.072701,57 L964.40223,65.6704715 C963.869299,66.2034024 963.867649,67.0679335 964.399858,67.6001423 C964.935777,68.1360616 965.79601,68.131289 966.329528,67.5977701 L975,58.9272986 L983.670472,67.5977701 C984.203402,68.130701 985.067933,68.1323511 985.600142,67.6001423 C986.136062,67.064223 986.131289,66.2039904 985.59777,65.6704715 L976.927299,57 L985.59777,48.3295285 C986.130701,47.7965976 986.132351,46.9320665 985.600142,46.3998577 C985.064223,45.8639384 984.20399,45.868711 983.670472,46.4022299 L975,55.0727014 Z" id="ex"></path>
        </g>
    </g>
</svg>